<?xml version="1.0" encoding="utf-8" ?>
<svg baseProfile="full" height="5.398cm" version="1.1" width="8.56cm" xmlns="http://www.w3.org/2000/svg" xmlns:ev="http://www.w3.org/2001/xml-events" xmlns:xlink="http://www.w3.org/1999/xlink"><defs /><rect fill="white" height="100%" width="100%" x="0" y="0" /><rect fill="tomato" fill-opacity="0.5" height="4.5mm" stroke="black" stroke-width="0.5" width="4.5mm" x="0.25cm" y="0.25cm" /><text font-size="2.5mm" font-weight="bold" text-anchor="middle" x="0.475cm" y="0.625cm">H</text><text font-size="2mm" x="0.275cm" y="0.40384615384615385cm">1</text><rect fill="tomato" fill-opacity="0.5" height="4.5mm" stroke="black" stroke-width="0.5" width="4.5mm" x="7.9cm" y="0.25cm" /><text font-size="2.5mm" font-weight="bold" text-anchor="middle" x="8.125cm" y="0.625cm">He</text><text font-size="2mm" x="7.925000000000001cm" y="0.40384615384615385cm">2</text><rect fill="tomato" fill-opacity="0.5" height="4.5mm" stroke="black" stroke-width="0.5" width="4.5mm" x="0.25cm" y="0.7cm" /><text font-size="2.5mm" font-weight="bold" text-anchor="middle" x="0.475cm" y="1.075cm">Li</text><text font-size="2mm" x="0.275cm" y="0.8538461538461538cm">3</text><rect fill="tomato" fill-opacity="0.5" height="4.5mm" stroke="black" stroke-width="0.5" width="4.5mm" x="0.7cm" y="0.7cm" /><text font-size="2.5mm" font-weight="bold" text-anchor="middle" x="0.9249999999999999cm" y="1.075cm">Be</text><text font-size="2mm" x="0.725cm" y="0.8538461538461538cm">4</text><rect fill="skyblue" fill-opacity="0.5" height="4.5mm" stroke="black" stroke-width="0.5" width="4.5mm" x="5.65cm" y="0.7cm" /><text font-size="2.5mm" font-weight="bold" text-anchor="middle" x="5.875cm" y="1.075cm">B</text><text font-size="2mm" x="5.675000000000001cm" y="0.8538461538461538cm">5</text><rect fill="skyblue" fill-opacity="0.5" height="4.5mm" stroke="black" stroke-width="0.5" width="4.5mm" x="6.1cm" y="0.7cm" /><text font-size="2.5mm" font-weight="bold" text-anchor="middle" x="6.324999999999999cm" y="1.075cm">C</text><text font-size="2mm" x="6.125cm" y="0.8538461538461538cm">6</text><rect fill="skyblue" fill-opacity="0.5" height="4.5mm" stroke="black" stroke-width="0.5" width="4.5mm" x="6.55cm" y="0.7cm" /><text font-size="2.5mm" font-weight="bold" text-anchor="middle" x="6.7749999999999995cm" y="1.075cm">N</text><text font-size="2mm" x="6.575cm" y="0.8538461538461538cm">7</text><rect fill="skyblue" fill-opacity="0.5" height="4.5mm" stroke="black" stroke-width="0.5" width="4.5mm" x="7.0cm" y="0.7cm" /><text font-size="2.5mm" font-weight="bold" text-anchor="middle" x="7.225cm" y="1.075cm">O</text><text font-size="2mm" x="7.025cm" y="0.8538461538461538cm">8</text><rect fill="skyblue" fill-opacity="0.5" height="4.5mm" stroke="black" stroke-width="0.5" width="4.5mm" x="7.45cm" y="0.7cm" /><text font-size="2.5mm" font-weight="bold" text-anchor="middle" x="7.675cm" y="1.075cm">F</text><text font-size="2mm" x="7.4750000000000005cm" y="0.8538461538461538cm">9</text><rect fill="skyblue" fill-opacity="0.5" height="4.5mm" stroke="black" stroke-width="0.5" width="4.5mm" x="7.9cm" y="0.7cm" /><text font-size="2.5mm" font-weight="bold" text-anchor="middle" x="8.125cm" y="1.075cm">Ne</text><text font-size="2mm" x="7.925000000000001cm" y="0.8538461538461538cm">10</text><rect fill="tomato" fill-opacity="0.5" height="4.5mm" stroke="black" stroke-width="0.5" width="4.5mm" x="0.25cm" y="1.15cm" /><text font-size="2.5mm" font-weight="bold" text-anchor="middle" x="0.475cm" y="1.525cm">Na</text><text font-size="2mm" x="0.275cm" y="1.3038461538461537cm">11</text><rect fill="tomato" fill-opacity="0.5" height="4.5mm" stroke="black" stroke-width="0.5" width="4.5mm" x="0.7cm" y="1.15cm" /><text font-size="2.5mm" font-weight="bold" text-anchor="middle" x="0.9249999999999999cm" y="1.525cm">Mg</text><text font-size="2mm" x="0.725cm" y="1.3038461538461537cm">12</text><rect fill="skyblue" fill-opacity="0.5" height="4.5mm" stroke="black" stroke-width="0.5" width="4.5mm" x="5.65cm" y="1.15cm" /><text font-size="2.5mm" font-weight="bold" text-anchor="middle" x="5.875cm" y="1.525cm">Al</text><text font-size="2mm" x="5.675000000000001cm" y="1.3038461538461537cm">13</text><rect fill="skyblue" fill-opacity="0.5" height="4.5mm" stroke="black" stroke-width="0.5" width="4.5mm" x="6.1cm" y="1.15cm" /><text font-size="2.5mm" font-weight="bold" text-anchor="middle" x="6.324999999999999cm" y="1.525cm">Si</text><text font-size="2mm" x="6.125cm" y="1.3038461538461537cm">14</text><rect fill="skyblue" fill-opacity="0.5" height="4.5mm" stroke="black" stroke-width="0.5" width="4.5mm" x="6.55cm" y="1.15cm" /><text font-size="2.5mm" font-weight="bold" text-anchor="middle" x="6.7749999999999995cm" y="1.525cm">P</text><text font-size="2mm" x="6.575cm" y="1.3038461538461537cm">15</text><rect fill="skyblue" fill-opacity="0.5" height="4.5mm" stroke="black" stroke-width="0.5" width="4.5mm" x="7.0cm" y="1.15cm" /><text font-size="2.5mm" font-weight="bold" text-anchor="middle" x="7.225cm" y="1.525cm">S</text><text font-size="2mm" x="7.025cm" y="1.3038461538461537cm">16</text><rect fill="skyblue" fill-opacity="0.5" height="4.5mm" stroke="black" stroke-width="0.5" width="4.5mm" x="7.45cm" y="1.15cm" /><text font-size="2.5mm" font-weight="bold" text-anchor="middle" x="7.675cm" y="1.525cm">Cl</text><text font-size="2mm" x="7.4750000000000005cm" y="1.3038461538461537cm">17</text><rect fill="skyblue" fill-opacity="0.5" height="4.5mm" stroke="black" stroke-width="0.5" width="4.5mm" x="7.9cm" y="1.15cm" /><text font-size="2.5mm" font-weight="bold" text-anchor="middle" x="8.125cm" y="1.525cm">Ar</text><text font-size="2mm" x="7.925000000000001cm" y="1.3038461538461537cm">18</text><rect fill="tomato" fill-opacity="0.5" height="4.5mm" stroke="black" stroke-width="0.5" width="4.5mm" x="0.25cm" y="1.6cm" /><text font-size="2.5mm" font-weight="bold" text-anchor="middle" x="0.475cm" y="1.975cm">K</text><text font-size="2mm" x="0.275cm" y="1.7538461538461538cm">19</text><rect fill="tomato" fill-opacity="0.5" height="4.5mm" stroke="black" stroke-width="0.5" width="4.5mm" x="0.7cm" y="1.6cm" /><text font-size="2.5mm" font-weight="bold" text-anchor="middle" x="0.9249999999999999cm" y="1.975cm">Ca</text><text font-size="2mm" x="0.725cm" y="1.7538461538461538cm">20</text><rect fill="sandybrown" fill-opacity="0.5" height="4.5mm" stroke="black" stroke-width="0.5" width="4.5mm" x="1.15cm" y="1.6cm" /><text font-size="2.5mm" font-weight="bold" text-anchor="middle" x="1.375cm" y="1.975cm">Sc</text><text font-size="2mm" x="1.1749999999999998cm" y="1.7538461538461538cm">21</text><rect fill="sandybrown" fill-opacity="0.5" height="4.5mm" stroke="black" stroke-width="0.5" width="4.5mm" x="1.6cm" y="1.6cm" /><text font-size="2.5mm" font-weight="bold" text-anchor="middle" x="1.8250000000000002cm" y="1.975cm">Ti</text><text font-size="2mm" x="1.625cm" y="1.7538461538461538cm">22</text><rect fill="sandybrown" fill-opacity="0.5" height="4.5mm" stroke="black" stroke-width="0.5" width="4.5mm" x="2.05cm" y="1.6cm" /><text font-size="2.5mm" font-weight="bold" text-anchor="middle" x="2.275cm" y="1.975cm">V</text><text font-size="2mm" x="2.0749999999999997cm" y="1.7538461538461538cm">23</text><rect fill="sandybrown" fill-opacity="0.5" height="4.5mm" stroke="black" stroke-width="0.5" width="4.5mm" x="2.5cm" y="1.6cm" /><text font-size="2.5mm" font-weight="bold" text-anchor="middle" x="2.725cm" y="1.975cm">Cr</text><text font-size="2mm" x="2.525cm" y="1.7538461538461538cm">24</text><rect fill="sandybrown" fill-opacity="0.5" height="4.5mm" stroke="black" stroke-width="0.5" width="4.5mm" x="2.95cm" y="1.6cm" /><text font-size="2.5mm" font-weight="bold" text-anchor="middle" x="3.1750000000000003cm" y="1.975cm">Mn</text><text font-size="2mm" x="2.975cm" y="1.7538461538461538cm">25</text><rect fill="sandybrown" fill-opacity="0.5" height="4.5mm" stroke="black" stroke-width="0.5" width="4.5mm" x="3.4cm" y="1.6cm" /><text font-size="2.5mm" font-weight="bold" text-anchor="middle" x="3.625cm" y="1.975cm">Fe</text><text font-size="2mm" x="3.425cm" y="1.7538461538461538cm">26</text><rect fill="sandybrown" fill-opacity="0.5" height="4.5mm" stroke="black" stroke-width="0.5" width="4.5mm" x="3.85cm" y="1.6cm" /><text font-size="2.5mm" font-weight="bold" text-anchor="middle" x="4.075cm" y="1.975cm">Co</text><text font-size="2mm" x="3.875cm" y="1.7538461538461538cm">27</text><rect fill="sandybrown" fill-opacity="0.5" height="4.5mm" stroke="black" stroke-width="0.5" width="4.5mm" x="4.3cm" y="1.6cm" /><text font-size="2.5mm" font-weight="bold" text-anchor="middle" x="4.5249999999999995cm" y="1.975cm">Ni</text><text font-size="2mm" x="4.325cm" y="1.7538461538461538cm">28</text><rect fill="sandybrown" fill-opacity="0.5" height="4.5mm" stroke="black" stroke-width="0.5" width="4.5mm" x="4.75cm" y="1.6cm" /><text font-size="2.5mm" font-weight="bold" text-anchor="middle" x="4.975cm" y="1.975cm">Cu</text><text font-size="2mm" x="4.775cm" y="1.7538461538461538cm">29</text><rect fill="sandybrown" fill-opacity="0.5" height="4.5mm" stroke="black" stroke-width="0.5" width="4.5mm" x="5.2cm" y="1.6cm" /><text font-size="2.5mm" font-weight="bold" text-anchor="middle" x="5.425cm" y="1.975cm">Zn</text><text font-size="2mm" x="5.2250000000000005cm" y="1.7538461538461538cm">30</text><rect fill="skyblue" fill-opacity="0.5" height="4.5mm" stroke="black" stroke-width="0.5" width="4.5mm" x="5.65cm" y="1.6cm" /><text font-size="2.5mm" font-weight="bold" text-anchor="middle" x="5.875cm" y="1.975cm">Ga</text><text font-size="2mm" x="5.675000000000001cm" y="1.7538461538461538cm">31</text><rect fill="skyblue" fill-opacity="0.5" height="4.5mm" stroke="black" stroke-width="0.5" width="4.5mm" x="6.1cm" y="1.6cm" /><text font-size="2.5mm" font-weight="bold" text-anchor="middle" x="6.324999999999999cm" y="1.975cm">Ge</text><text font-size="2mm" x="6.125cm" y="1.7538461538461538cm">32</text><rect fill="skyblue" fill-opacity="0.5" height="4.5mm" stroke="black" stroke-width="0.5" width="4.5mm" x="6.55cm" y="1.6cm" /><text font-size="2.5mm" font-weight="bold" text-anchor="middle" x="6.7749999999999995cm" y="1.975cm">As</text><text font-size="2mm" x="6.575cm" y="1.7538461538461538cm">33</text><rect fill="skyblue" fill-opacity="0.5" height="4.5mm" stroke="black" stroke-width="0.5" width="4.5mm" x="7.0cm" y="1.6cm" /><text font-size="2.5mm" font-weight="bold" text-anchor="middle" x="7.225cm" y="1.975cm">Se</text><text font-size="2mm" x="7.025cm" y="1.7538461538461538cm">34</text><rect fill="skyblue" fill-opacity="0.5" height="4.5mm" stroke="black" stroke-width="0.5" width="4.5mm" x="7.45cm" y="1.6cm" /><text font-size="2.5mm" font-weight="bold" text-anchor="middle" x="7.675cm" y="1.975cm">Br</text><text font-size="2mm" x="7.4750000000000005cm" y="1.7538461538461538cm">35</text><rect fill="skyblue" fill-opacity="0.5" height="4.5mm" stroke="black" stroke-width="0.5" width="4.5mm" x="7.9cm" y="1.6cm" /><text font-size="2.5mm" font-weight="bold" text-anchor="middle" x="8.125cm" y="1.975cm">Kr</text><text font-size="2mm" x="7.925000000000001cm" y="1.7538461538461538cm">36</text><rect fill="tomato" fill-opacity="0.5" height="4.5mm" stroke="black" stroke-width="0.5" width="4.5mm" x="0.25cm" y="2.05cm" /><text font-size="2.5mm" font-weight="bold" text-anchor="middle" x="0.475cm" y="2.425cm">Rb</text><text font-size="2mm" x="0.275cm" y="2.2038461538461536cm">37</text><rect fill="tomato" fill-opacity="0.5" height="4.5mm" stroke="black" stroke-width="0.5" width="4.5mm" x="0.7cm" y="2.05cm" /><text font-size="2.5mm" font-weight="bold" text-anchor="middle" x="0.9249999999999999cm" y="2.425cm">Sr</text><text font-size="2mm" x="0.725cm" y="2.2038461538461536cm">38</text><rect fill="sandybrown" fill-opacity="0.5" height="4.5mm" stroke="black" stroke-width="0.5" width="4.5mm" x="1.15cm" y="2.05cm" /><text font-size="2.5mm" font-weight="bold" text-anchor="middle" x="1.375cm" y="2.425cm">Y</text><text font-size="2mm" x="1.1749999999999998cm" y="2.2038461538461536cm">39</text><rect fill="sandybrown" fill-opacity="0.5" height="4.5mm" stroke="black" stroke-width="0.5" width="4.5mm" x="1.6cm" y="2.05cm" /><text font-size="2.5mm" font-weight="bold" text-anchor="middle" x="1.8250000000000002cm" y="2.425cm">Zr</text><text font-size="2mm" x="1.625cm" y="2.2038461538461536cm">40</text><rect fill="sandybrown" fill-opacity="0.5" height="4.5mm" stroke="black" stroke-width="0.5" width="4.5mm" x="2.05cm" y="2.05cm" /><text font-size="2.5mm" font-weight="bold" text-anchor="middle" x="2.275cm" y="2.425cm">Nb</text><text font-size="2mm" x="2.0749999999999997cm" y="2.2038461538461536cm">41</text><rect fill="sandybrown" fill-opacity="0.5" height="4.5mm" stroke="black" stroke-width="0.5" width="4.5mm" x="2.5cm" y="2.05cm" /><text font-size="2.5mm" font-weight="bold" text-anchor="middle" x="2.725cm" y="2.425cm">Mo</text><text font-size="2mm" x="2.525cm" y="2.2038461538461536cm">42</text><rect fill="sandybrown" fill-opacity="0.5" height="4.5mm" stroke="black" stroke-width="0.5" width="4.5mm" x="2.95cm" y="2.05cm" /><text font-size="2.5mm" font-weight="bold" text-anchor="middle" x="3.1750000000000003cm" y="2.425cm">Tc</text><text font-size="2mm" x="2.975cm" y="2.2038461538461536cm">43</text><rect fill="sandybrown" fill-opacity="0.5" height="4.5mm" stroke="black" stroke-width="0.5" width="4.5mm" x="3.4cm" y="2.05cm" /><text font-size="2.5mm" font-weight="bold" text-anchor="middle" x="3.625cm" y="2.425cm">Ru</text><text font-size="2mm" x="3.425cm" y="2.2038461538461536cm">44</text><rect fill="sandybrown" fill-opacity="0.5" height="4.5mm" stroke="black" stroke-width="0.5" width="4.5mm" x="3.85cm" y="2.05cm" /><text font-size="2.5mm" font-weight="bold" text-anchor="middle" x="4.075cm" y="2.425cm">Rh</text><text font-size="2mm" x="3.875cm" y="2.2038461538461536cm">45</text><rect fill="sandybrown" fill-opacity="0.5" height="4.5mm" stroke="black" stroke-width="0.5" width="4.5mm" x="4.3cm" y="2.05cm" /><text font-size="2.5mm" font-weight="bold" text-anchor="middle" x="4.5249999999999995cm" y="2.425cm">Pd</text><text font-size="2mm" x="4.325cm" y="2.2038461538461536cm">46</text><rect fill="sandybrown" fill-opacity="0.5" height="4.5mm" stroke="black" stroke-width="0.5" width="4.5mm" x="4.75cm" y="2.05cm" /><text font-size="2.5mm" font-weight="bold" text-anchor="middle" x="4.975cm" y="2.425cm">Ag</text><text font-size="2mm" x="4.775cm" y="2.2038461538461536cm">47</text><rect fill="sandybrown" fill-opacity="0.5" height="4.5mm" stroke="black" stroke-width="0.5" width="4.5mm" x="5.2cm" y="2.05cm" /><text font-size="2.5mm" font-weight="bold" text-anchor="middle" x="5.425cm" y="2.425cm">Cd</text><text font-size="2mm" x="5.2250000000000005cm" y="2.2038461538461536cm">48</text><rect fill="skyblue" fill-opacity="0.5" height="4.5mm" stroke="black" stroke-width="0.5" width="4.5mm" x="5.65cm" y="2.05cm" /><text font-size="2.5mm" font-weight="bold" text-anchor="middle" x="5.875cm" y="2.425cm">In</text><text font-size="2mm" x="5.675000000000001cm" y="2.2038461538461536cm">49</text><rect fill="skyblue" fill-opacity="0.5" height="4.5mm" stroke="black" stroke-width="0.5" width="4.5mm" x="6.1cm" y="2.05cm" /><text font-size="2.5mm" font-weight="bold" text-anchor="middle" x="6.324999999999999cm" y="2.425cm">Sn</text><text font-size="2mm" x="6.125cm" y="2.2038461538461536cm">50</text><rect fill="skyblue" fill-opacity="0.5" height="4.5mm" stroke="black" stroke-width="0.5" width="4.5mm" x="6.55cm" y="2.05cm" /><text font-size="2.5mm" font-weight="bold" text-anchor="middle" x="6.7749999999999995cm" y="2.425cm">Sb</text><text font-size="2mm" x="6.575cm" y="2.2038461538461536cm">51</text><rect fill="skyblue" fill-opacity="0.5" height="4.5mm" stroke="black" stroke-width="0.5" width="4.5mm" x="7.0cm" y="2.05cm" /><text font-size="2.5mm" font-weight="bold" text-anchor="middle" x="7.225cm" y="2.425cm">Te</text><text font-size="2mm" x="7.025cm" y="2.2038461538461536cm">52</text><rect fill="skyblue" fill-opacity="0.5" height="4.5mm" stroke="black" stroke-width="0.5" width="4.5mm" x="7.45cm" y="2.05cm" /><text font-size="2.5mm" font-weight="bold" text-anchor="middle" x="7.675cm" y="2.425cm">I</text><text font-size="2mm" x="7.4750000000000005cm" y="2.2038461538461536cm">53</text><rect fill="skyblue" fill-opacity="0.5" height="4.5mm" stroke="black" stroke-width="0.5" width="4.5mm" x="7.9cm" y="2.05cm" /><text font-size="2.5mm" font-weight="bold" text-anchor="middle" x="8.125cm" y="2.425cm">Xe</text><text font-size="2mm" x="7.925000000000001cm" y="2.2038461538461536cm">54</text><rect fill="tomato" fill-opacity="0.5" height="4.5mm" stroke="black" stroke-width="0.5" width="4.5mm" x="0.25cm" y="2.5cm" /><text font-size="2.5mm" font-weight="bold" text-anchor="middle" x="0.475cm" y="2.875cm">Cs</text><text font-size="2mm" x="0.275cm" y="2.6538461538461537cm">55</text><rect fill="tomato" fill-opacity="0.5" height="4.5mm" stroke="black" stroke-width="0.5" width="4.5mm" x="0.7cm" y="2.5cm" /><text font-size="2.5mm" font-weight="bold" text-anchor="middle" x="0.9249999999999999cm" y="2.875cm">Ba</text><text font-size="2mm" x="0.725cm" y="2.6538461538461537cm">56</text><rect fill="springgreen" fill-opacity="0.5" height="4.5mm" stroke="black" stroke-width="0.5" width="4.5mm" x="1.6cm" y="3.6cm" /><text font-size="2.5mm" font-weight="bold" text-anchor="middle" x="1.8250000000000002cm" y="3.975cm">La</text><text font-size="2mm" x="1.625cm" y="3.753846153846154cm">57</text><rect fill="springgreen" fill-opacity="0.5" height="4.5mm" stroke="black" stroke-width="0.5" width="4.5mm" x="2.05cm" y="3.6cm" /><text font-size="2.5mm" font-weight="bold" text-anchor="middle" x="2.275cm" y="3.975cm">Ce</text><text font-size="2mm" x="2.0749999999999997cm" y="3.753846153846154cm">58</text><rect fill="springgreen" fill-opacity="0.5" height="4.5mm" stroke="black" stroke-width="0.5" width="4.5mm" x="2.5cm" y="3.6cm" /><text font-size="2.5mm" font-weight="bold" text-anchor="middle" x="2.725cm" y="3.975cm">Pr</text><text font-size="2mm" x="2.525cm" y="3.753846153846154cm">59</text><rect fill="springgreen" fill-opacity="0.5" height="4.5mm" stroke="black" stroke-width="0.5" width="4.5mm" x="2.95cm" y="3.6cm" /><text font-size="2.5mm" font-weight="bold" text-anchor="middle" x="3.1750000000000003cm" y="3.975cm">Nd</text><text font-size="2mm" x="2.975cm" y="3.753846153846154cm">60</text><rect fill="springgreen" fill-opacity="0.5" height="4.5mm" stroke="black" stroke-width="0.5" width="4.5mm" x="3.4cm" y="3.6cm" /><text font-size="2.5mm" font-weight="bold" text-anchor="middle" x="3.625cm" y="3.975cm">Pm</text><text font-size="2mm" x="3.425cm" y="3.753846153846154cm">61</text><rect fill="springgreen" fill-opacity="0.5" height="4.5mm" stroke="black" stroke-width="0.5" width="4.5mm" x="3.85cm" y="3.6cm" /><text font-size="2.5mm" font-weight="bold" text-anchor="middle" x="4.075cm" y="3.975cm">Sm</text><text font-size="2mm" x="3.875cm" y="3.753846153846154cm">62</text><rect fill="springgreen" fill-opacity="0.5" height="4.5mm" stroke="black" stroke-width="0.5" width="4.5mm" x="4.3cm" y="3.6cm" /><text font-size="2.5mm" font-weight="bold" text-anchor="middle" x="4.5249999999999995cm" y="3.975cm">Eu</text><text font-size="2mm" x="4.325cm" y="3.753846153846154cm">63</text><rect fill="springgreen" fill-opacity="0.5" height="4.5mm" stroke="black" stroke-width="0.5" width="4.5mm" x="4.75cm" y="3.6cm" /><text font-size="2.5mm" font-weight="bold" text-anchor="middle" x="4.975cm" y="3.975cm">Gd</text><text font-size="2mm" x="4.775cm" y="3.753846153846154cm">64</text><rect fill="springgreen" fill-opacity="0.5" height="4.5mm" stroke="black" stroke-width="0.5" width="4.5mm" x="5.2cm" y="3.6cm" /><text font-size="2.5mm" font-weight="bold" text-anchor="middle" x="5.425cm" y="3.975cm">Tb</text><text font-size="2mm" x="5.2250000000000005cm" y="3.753846153846154cm">65</text><rect fill="springgreen" fill-opacity="0.5" height="4.5mm" stroke="black" stroke-width="0.5" width="4.5mm" x="5.65cm" y="3.6cm" /><text font-size="2.5mm" font-weight="bold" text-anchor="middle" x="5.875cm" y="3.975cm">Dy</text><text font-size="2mm" x="5.675000000000001cm" y="3.753846153846154cm">66</text><rect fill="springgreen" fill-opacity="0.5" height="4.5mm" stroke="black" stroke-width="0.5" width="4.5mm" x="6.1cm" y="3.6cm" /><text font-size="2.5mm" font-weight="bold" text-anchor="middle" x="6.324999999999999cm" y="3.975cm">Ho</text><text font-size="2mm" x="6.125cm" y="3.753846153846154cm">67</text><rect fill="springgreen" fill-opacity="0.5" height="4.5mm" stroke="black" stroke-width="0.5" width="4.5mm" x="6.55cm" y="3.6cm" /><text font-size="2.5mm" font-weight="bold" text-anchor="middle" x="6.7749999999999995cm" y="3.975cm">Er</text><text font-size="2mm" x="6.575cm" y="3.753846153846154cm">68</text><rect fill="springgreen" fill-opacity="0.5" height="4.5mm" stroke="black" stroke-width="0.5" width="4.5mm" x="7.0cm" y="3.6cm" /><text font-size="2.5mm" font-weight="bold" text-anchor="middle" x="7.225cm" y="3.975cm">Tm</text><text font-size="2mm" x="7.025cm" y="3.753846153846154cm">69</text><rect fill="springgreen" fill-opacity="0.5" height="4.5mm" stroke="black" stroke-width="0.5" width="4.5mm" x="7.45cm" y="3.6cm" /><text font-size="2.5mm" font-weight="bold" text-anchor="middle" x="7.675cm" y="3.975cm">Yb</text><text font-size="2mm" x="7.4750000000000005cm" y="3.753846153846154cm">70</text><rect fill="springgreen" fill-opacity="0.5" height="4.5mm" stroke="black" stroke-width="0.5" width="4.5mm" x="7.9cm" y="3.6cm" /><text font-size="2.5mm" font-weight="bold" text-anchor="middle" x="8.125cm" y="3.975cm">Lu</text><text font-size="2mm" x="7.925000000000001cm" y="3.753846153846154cm">71</text><rect fill="sandybrown" fill-opacity="0.5" height="4.5mm" stroke="black" stroke-width="0.5" width="4.5mm" x="1.6cm" y="2.5cm" /><text font-size="2.5mm" font-weight="bold" text-anchor="middle" x="1.8250000000000002cm" y="2.875cm">Hf</text><text font-size="2mm" x="1.625cm" y="2.6538461538461537cm">72</text><rect fill="sandybrown" fill-opacity="0.5" height="4.5mm" stroke="black" stroke-width="0.5" width="4.5mm" x="2.05cm" y="2.5cm" /><text font-size="2.5mm" font-weight="bold" text-anchor="middle" x="2.275cm" y="2.875cm">Ta</text><text font-size="2mm" x="2.0749999999999997cm" y="2.6538461538461537cm">73</text><rect fill="sandybrown" fill-opacity="0.5" height="4.5mm" stroke="black" stroke-width="0.5" width="4.5mm" x="2.5cm" y="2.5cm" /><text font-size="2.5mm" font-weight="bold" text-anchor="middle" x="2.725cm" y="2.875cm">W</text><text font-size="2mm" x="2.525cm" y="2.6538461538461537cm">74</text><rect fill="sandybrown" fill-opacity="0.5" height="4.5mm" stroke="black" stroke-width="0.5" width="4.5mm" x="2.95cm" y="2.5cm" /><text font-size="2.5mm" font-weight="bold" text-anchor="middle" x="3.1750000000000003cm" y="2.875cm">Re</text><text font-size="2mm" x="2.975cm" y="2.6538461538461537cm">75</text><rect fill="sandybrown" fill-opacity="0.5" height="4.5mm" stroke="black" stroke-width="0.5" width="4.5mm" x="3.4cm" y="2.5cm" /><text font-size="2.5mm" font-weight="bold" text-anchor="middle" x="3.625cm" y="2.875cm">Os</text><text font-size="2mm" x="3.425cm" y="2.6538461538461537cm">76</text><rect fill="sandybrown" fill-opacity="0.5" height="4.5mm" stroke="black" stroke-width="0.5" width="4.5mm" x="3.85cm" y="2.5cm" /><text font-size="2.5mm" font-weight="bold" text-anchor="middle" x="4.075cm" y="2.875cm">Ir</text><text font-size="2mm" x="3.875cm" y="2.6538461538461537cm">77</text><rect fill="sandybrown" fill-opacity="0.5" height="4.5mm" stroke="black" stroke-width="0.5" width="4.5mm" x="4.3cm" y="2.5cm" /><text font-size="2.5mm" font-weight="bold" text-anchor="middle" x="4.5249999999999995cm" y="2.875cm">Pt</text><text font-size="2mm" x="4.325cm" y="2.6538461538461537cm">78</text><rect fill="sandybrown" fill-opacity="0.5" height="4.5mm" stroke="black" stroke-width="0.5" width="4.5mm" x="4.75cm" y="2.5cm" /><text font-size="2.5mm" font-weight="bold" text-anchor="middle" x="4.975cm" y="2.875cm">Au</text><text font-size="2mm" x="4.775cm" y="2.6538461538461537cm">79</text><rect fill="sandybrown" fill-opacity="0.5" height="4.5mm" stroke="black" stroke-width="0.5" width="4.5mm" x="5.2cm" y="2.5cm" /><text font-size="2.5mm" font-weight="bold" text-anchor="middle" x="5.425cm" y="2.875cm">Hg</text><text font-size="2mm" x="5.2250000000000005cm" y="2.6538461538461537cm">80</text><rect fill="skyblue" fill-opacity="0.5" height="4.5mm" stroke="black" stroke-width="0.5" width="4.5mm" x="5.65cm" y="2.5cm" /><text font-size="2.5mm" font-weight="bold" text-anchor="middle" x="5.875cm" y="2.875cm">Tl</text><text font-size="2mm" x="5.675000000000001cm" y="2.6538461538461537cm">81</text><rect fill="skyblue" fill-opacity="0.5" height="4.5mm" stroke="black" stroke-width="0.5" width="4.5mm" x="6.1cm" y="2.5cm" /><text font-size="2.5mm" font-weight="bold" text-anchor="middle" x="6.324999999999999cm" y="2.875cm">Pb</text><text font-size="2mm" x="6.125cm" y="2.6538461538461537cm">82</text><rect fill="skyblue" fill-opacity="0.5" height="4.5mm" stroke="black" stroke-width="0.5" width="4.5mm" x="6.55cm" y="2.5cm" /><text font-size="2.5mm" font-weight="bold" text-anchor="middle" x="6.7749999999999995cm" y="2.875cm">Bi</text><text font-size="2mm" x="6.575cm" y="2.6538461538461537cm">83</text><rect fill="skyblue" fill-opacity="0.5" height="4.5mm" stroke="black" stroke-width="0.5" width="4.5mm" x="7.0cm" y="2.5cm" /><text font-size="2.5mm" font-weight="bold" text-anchor="middle" x="7.225cm" y="2.875cm">Po</text><text font-size="2mm" x="7.025cm" y="2.6538461538461537cm">84</text><rect fill="skyblue" fill-opacity="0.5" height="4.5mm" stroke="black" stroke-width="0.5" width="4.5mm" x="7.45cm" y="2.5cm" /><text font-size="2.5mm" font-weight="bold" text-anchor="middle" x="7.675cm" y="2.875cm">At</text><text font-size="2mm" x="7.4750000000000005cm" y="2.6538461538461537cm">85</text><rect fill="skyblue" fill-opacity="0.5" height="4.5mm" stroke="black" stroke-width="0.5" width="4.5mm" x="7.9cm" y="2.5cm" /><text font-size="2.5mm" font-weight="bold" text-anchor="middle" x="8.125cm" y="2.875cm">Rn</text><text font-size="2mm" x="7.925000000000001cm" y="2.6538461538461537cm">86</text><rect fill="tomato" fill-opacity="0.5" height="4.5mm" stroke="black" stroke-width="0.5" width="4.5mm" x="0.25cm" y="2.95cm" /><text font-size="2.5mm" font-weight="bold" text-anchor="middle" x="0.475cm" y="3.325cm">Fr</text><text font-size="2mm" x="0.275cm" y="3.103846153846154cm">87</text><rect fill="tomato" fill-opacity="0.5" height="4.5mm" stroke="black" stroke-width="0.5" width="4.5mm" x="0.7cm" y="2.95cm" /><text font-size="2.5mm" font-weight="bold" text-anchor="middle" x="0.9249999999999999cm" y="3.325cm">Ra</text><text font-size="2mm" x="0.725cm" y="3.103846153846154cm">88</text><rect fill="springgreen" fill-opacity="0.5" height="4.5mm" stroke="black" stroke-width="0.5" width="4.5mm" x="1.6cm" y="4.05cm" /><text font-size="2.5mm" font-weight="bold" text-anchor="middle" x="1.8250000000000002cm" y="4.425cm">Ac</text><text font-size="2mm" x="1.625cm" y="4.203846153846154cm">89</text><rect fill="springgreen" fill-opacity="0.5" height="4.5mm" stroke="black" stroke-width="0.5" width="4.5mm" x="2.05cm" y="4.05cm" /><text font-size="2.5mm" font-weight="bold" text-anchor="middle" x="2.275cm" y="4.425cm">Th</text><text font-size="2mm" x="2.0749999999999997cm" y="4.203846153846154cm">90</text><rect fill="springgreen" fill-opacity="0.5" height="4.5mm" stroke="black" stroke-width="0.5" width="4.5mm" x="2.5cm" y="4.05cm" /><text font-size="2.5mm" font-weight="bold" text-anchor="middle" x="2.725cm" y="4.425cm">Pa</text><text font-size="2mm" x="2.525cm" y="4.203846153846154cm">91</text><rect fill="springgreen" fill-opacity="0.5" height="4.5mm" stroke="black" stroke-width="0.5" width="4.5mm" x="2.95cm" y="4.05cm" /><text font-size="2.5mm" font-weight="bold" text-anchor="middle" x="3.1750000000000003cm" y="4.425cm">U</text><text font-size="2mm" x="2.975cm" y="4.203846153846154cm">92</text><rect fill="springgreen" fill-opacity="0.5" height="4.5mm" stroke="black" stroke-width="0.5" width="4.5mm" x="3.4cm" y="4.05cm" /><text font-size="2.5mm" font-weight="bold" text-anchor="middle" x="3.625cm" y="4.425cm">Np</text><text font-size="2mm" x="3.425cm" y="4.203846153846154cm">93</text><rect fill="springgreen" fill-opacity="0.5" height="4.5mm" stroke="black" stroke-width="0.5" width="4.5mm" x="3.85cm" y="4.05cm" /><text font-size="2.5mm" font-weight="bold" text-anchor="middle" x="4.075cm" y="4.425cm">Pu</text><text font-size="2mm" x="3.875cm" y="4.203846153846154cm">94</text><rect fill="springgreen" fill-opacity="0.5" height="4.5mm" stroke="black" stroke-width="0.5" width="4.5mm" x="4.3cm" y="4.05cm" /><text font-size="2.5mm" font-weight="bold" text-anchor="middle" x="4.5249999999999995cm" y="4.425cm">Am</text><text font-size="2mm" x="4.325cm" y="4.203846153846154cm">95</text><rect fill="springgreen" fill-opacity="0.5" height="4.5mm" stroke="black" stroke-width="0.5" width="4.5mm" x="4.75cm" y="4.05cm" /><text font-size="2.5mm" font-weight="bold" text-anchor="middle" x="4.975cm" y="4.425cm">Cm</text><text font-size="2mm" x="4.775cm" y="4.203846153846154cm">96</text><rect fill="springgreen" fill-opacity="0.5" height="4.5mm" stroke="black" stroke-width="0.5" width="4.5mm" x="5.2cm" y="4.05cm" /><text font-size="2.5mm" font-weight="bold" text-anchor="middle" x="5.425cm" y="4.425cm">Bk</text><text font-size="2mm" x="5.2250000000000005cm" y="4.203846153846154cm">97</text><rect fill="springgreen" fill-opacity="0.5" height="4.5mm" stroke="black" stroke-width="0.5" width="4.5mm" x="5.65cm" y="4.05cm" /><text font-size="2.5mm" font-weight="bold" text-anchor="middle" x="5.875cm" y="4.425cm">Cf</text><text font-size="2mm" x="5.675000000000001cm" y="4.203846153846154cm">98</text><rect fill="springgreen" fill-opacity="0.5" height="4.5mm" stroke="black" stroke-width="0.5" width="4.5mm" x="6.1cm" y="4.05cm" /><text font-size="2.5mm" font-weight="bold" text-anchor="middle" x="6.324999999999999cm" y="4.425cm">Es</text><text font-size="2mm" x="6.125cm" y="4.203846153846154cm">99</text><rect fill="springgreen" fill-opacity="0.5" height="4.5mm" stroke="black" stroke-width="0.5" width="4.5mm" x="6.55cm" y="4.05cm" /><text font-size="2.5mm" font-weight="bold" text-anchor="middle" x="6.7749999999999995cm" y="4.425cm">Fm</text><text font-size="2mm" x="6.575cm" y="4.203846153846154cm">100</text><rect fill="springgreen" fill-opacity="0.5" height="4.5mm" stroke="black" stroke-width="0.5" width="4.5mm" x="7.0cm" y="4.05cm" /><text font-size="2.5mm" font-weight="bold" text-anchor="middle" x="7.225cm" y="4.425cm">Md</text><text font-size="2mm" x="7.025cm" y="4.203846153846154cm">101</text><rect fill="springgreen" fill-opacity="0.5" height="4.5mm" stroke="black" stroke-width="0.5" width="4.5mm" x="7.45cm" y="4.05cm" /><text font-size="2.5mm" font-weight="bold" text-anchor="middle" x="7.675cm" y="4.425cm">No</text><text font-size="2mm" x="7.4750000000000005cm" y="4.203846153846154cm">102</text><rect fill="springgreen" fill-opacity="0.5" height="4.5mm" stroke="black" stroke-width="0.5" width="4.5mm" x="7.9cm" y="4.05cm" /><text font-size="2.5mm" font-weight="bold" text-anchor="middle" x="8.125cm" y="4.425cm">Lr</text><text font-size="2mm" x="7.925000000000001cm" y="4.203846153846154cm">103</text><rect fill="sandybrown" fill-opacity="0.5" height="4.5mm" stroke="black" stroke-width="0.5" width="4.5mm" x="1.6cm" y="2.95cm" /><text font-size="2.5mm" font-weight="bold" text-anchor="middle" x="1.8250000000000002cm" y="3.325cm">Rf</text><text font-size="2mm" x="1.625cm" y="3.103846153846154cm">104</text><rect fill="sandybrown" fill-opacity="0.5" height="4.5mm" stroke="black" stroke-width="0.5" width="4.5mm" x="2.05cm" y="2.95cm" /><text font-size="2.5mm" font-weight="bold" text-anchor="middle" x="2.275cm" y="3.325cm">Db</text><text font-size="2mm" x="2.0749999999999997cm" y="3.103846153846154cm">105</text><rect fill="sandybrown" fill-opacity="0.5" height="4.5mm" stroke="black" stroke-width="0.5" width="4.5mm" x="2.5cm" y="2.95cm" /><text font-size="2.5mm" font-weight="bold" text-anchor="middle" x="2.725cm" y="3.325cm">Sg</text><text font-size="2mm" x="2.525cm" y="3.103846153846154cm">106</text><rect fill="sandybrown" fill-opacity="0.5" height="4.5mm" stroke="black" stroke-width="0.5" width="4.5mm" x="2.95cm" y="2.95cm" /><text font-size="2.5mm" font-weight="bold" text-anchor="middle" x="3.1750000000000003cm" y="3.325cm">Bh</text><text font-size="2mm" x="2.975cm" y="3.103846153846154cm">107</text><rect fill="sandybrown" fill-opacity="0.5" height="4.5mm" stroke="black" stroke-width="0.5" width="4.5mm" x="3.4cm" y="2.95cm" /><text font-size="2.5mm" font-weight="bold" text-anchor="middle" x="3.625cm" y="3.325cm">Hs</text><text font-size="2mm" x="3.425cm" y="3.103846153846154cm">108</text><rect fill="sandybrown" fill-opacity="0.5" height="4.5mm" stroke="black" stroke-width="0.5" width="4.5mm" x="3.85cm" y="2.95cm" /><text font-size="2.5mm" font-weight="bold" text-anchor="middle" x="4.075cm" y="3.325cm">Mt</text><text font-size="2mm" x="3.875cm" y="3.103846153846154cm">109</text><rect fill="sandybrown" fill-opacity="0.5" height="4.5mm" stroke="black" stroke-width="0.5" width="4.5mm" x="4.3cm" y="2.95cm" /><text font-size="2.5mm" font-weight="bold" text-anchor="middle" x="4.5249999999999995cm" y="3.325cm">Ds</text><text font-size="2mm" x="4.325cm" y="3.103846153846154cm">110</text><rect fill="sandybrown" fill-opacity="0.5" height="4.5mm" stroke="black" stroke-width="0.5" width="4.5mm" x="4.75cm" y="2.95cm" /><text font-size="2.5mm" font-weight="bold" text-anchor="middle" x="4.975cm" y="3.325cm">Rg</text><text font-size="2mm" x="4.775cm" y="3.103846153846154cm">111</text><rect fill="sandybrown" fill-opacity="0.5" height="4.5mm" stroke="black" stroke-width="0.5" width="4.5mm" x="5.2cm" y="2.95cm" /><text font-size="2.5mm" font-weight="bold" text-anchor="middle" x="5.425cm" y="3.325cm">Cn</text><text font-size="2mm" x="5.2250000000000005cm" y="3.103846153846154cm">112</text><rect fill="skyblue" fill-opacity="0.5" height="4.5mm" stroke="black" stroke-width="0.5" width="4.5mm" x="5.65cm" y="2.95cm" /><text font-size="2.5mm" font-weight="bold" text-anchor="middle" x="5.875cm" y="3.325cm">Nh</text><text font-size="2mm" x="5.675000000000001cm" y="3.103846153846154cm">113</text><rect fill="skyblue" fill-opacity="0.5" height="4.5mm" stroke="black" stroke-width="0.5" width="4.5mm" x="6.1cm" y="2.95cm" /><text font-size="2.5mm" font-weight="bold" text-anchor="middle" x="6.324999999999999cm" y="3.325cm">Fl</text><text font-size="2mm" x="6.125cm" y="3.103846153846154cm">114</text><rect fill="skyblue" fill-opacity="0.5" height="4.5mm" stroke="black" stroke-width="0.5" width="4.5mm" x="6.55cm" y="2.95cm" /><text font-size="2.5mm" font-weight="bold" text-anchor="middle" x="6.7749999999999995cm" y="3.325cm">Mc</text><text font-size="2mm" x="6.575cm" y="3.103846153846154cm">115</text><rect fill="skyblue" fill-opacity="0.5" height="4.5mm" stroke="black" stroke-width="0.5" width="4.5mm" x="7.0cm" y="2.95cm" /><text font-size="2.5mm" font-weight="bold" text-anchor="middle" x="7.225cm" y="3.325cm">Lv</text><text font-size="2mm" x="7.025cm" y="3.103846153846154cm">116</text><rect fill="skyblue" fill-opacity="0.5" height="4.5mm" stroke="black" stroke-width="0.5" width="4.5mm" x="7.45cm" y="2.95cm" /><text font-size="2.5mm" font-weight="bold" text-anchor="middle" x="7.675cm" y="3.325cm">Ts</text><text font-size="2mm" x="7.4750000000000005cm" y="3.103846153846154cm">117</text><rect fill="skyblue" fill-opacity="0.5" height="4.5mm" stroke="black" stroke-width="0.5" width="4.5mm" x="7.9cm" y="2.95cm" /><text font-size="2.5mm" font-weight="bold" text-anchor="middle" x="8.125cm" y="3.325cm">Og</text><text font-size="2mm" x="7.925000000000001cm" y="3.103846153846154cm">118</text><rect fill="white" height="4.5mm" stroke="black" stroke-width="0.5" width="4.5mm" x="1.15cm" y="2.95cm" /><text font-size="1.5mm" text-anchor="middle" x="1.375cm" y="2.875cm">57–71</text><text font-size="1.5mm" text-anchor="middle" x="1.375cm" y="3.325cm">89–103</text><text font-size="2.5mm" x="0.42500000000000004cm" y="3.975cm">Lantanoida</text><text font-size="2.5mm" x="0.42500000000000004cm" y="4.425cm">Actinoida</text></svg>